<svg xmlns="http://www.w3.org/2000/svg" xmlns:xlink="http://www.w3.org/1999/xlink" width="180" height="180" version="1.1" viewBox="0 0 180 180"><title>Luxon_icon</title><desc>Created with Sketch.</desc><g id="Luxon_icon" fill="none" fill-rule="evenodd" stroke="none" stroke-width="1"><g id="Luxon-icon---large"><circle id="Outer-Oval" cx="90" cy="90" r="90" fill="#B792FF"/><circle id="Inner-Oval" cx="90" cy="90" r="82" fill="#000"/><circle id="Inner-Oval" cx="90" cy="90" r="74" fill="#8065B4"/><ellipse id="Inner-Oval" cx="90" cy="105" fill="#B792FF" rx="64" ry="39"/><g id="Dial-etching" stroke-width="1" transform="translate(26.000000, 66.000000)"><ellipse id="Inner-Oval" cx="64.5" cy="39" fill="#B792FF" rx="37.5" ry="23"/><ellipse id="Inner-Oval" cx="64" cy="39" stroke="#000" stroke-width="2" rx="64" ry="39"/><polygon id="Triangle" fill="#000" points="109.5 21 111 58 108 58" transform="translate(109.500000, 39.500000) rotate(-90.000000) translate(-109.500000, -39.500000)"/><polygon id="Triangle" fill="#000" points="18.5 21 20 58 17 58" transform="translate(18.500000, 39.500000) rotate(90.000000) translate(-18.500000, -39.500000)"/><polygon id="Triangle" fill="#000" points="71.401 22.577 83.401 2.322 81.399 1.577"/><polygon id="Triangle" fill="#000" points="56.599 22.577 44.599 2.322 46.601 1.577"/><polygon id="Triangle" fill="#000" points="75.939 24.065 97.939 6.403 96.043 5.065"/><polygon id="Triangle" fill="#000" points="50.061 24.065 30.061 6.403 31.784 5.065"/><polygon id="Triangle" fill="#000" points="82.07 27.687 111.07 12.758 109.637 10.687"/><polygon id="Triangle" fill="#000" points="45.93 27.687 17.93 12.758 19.314 10.687"/><polygon id="Triangle" fill="#000" points="107.94 13.882 109.44 50.882 106.44 50.882" transform="translate(107.939819, 32.382232) rotate(-99.000000) translate(-107.939819, -32.382232)"/><polygon id="Triangle" fill="#000" points="20.06 28.118 21.56 65.118 18.56 65.118" transform="translate(20.060181, 46.617768) rotate(81.000000) translate(-20.060181, -46.617768)"/><polygon id="Triangle" fill="#000" points="103.021 8.187 104.521 45.187 101.521 45.187" transform="translate(103.021095, 26.686649) rotate(-109.000000) translate(-103.021095, -26.686649)"/><polygon id="Triangle" fill="#000" points="25.979 33.813 27.479 70.813 24.479 70.813" transform="translate(25.978905, 52.313351) rotate(71.000000) translate(-25.978905, -52.313351)"/><polygon id="Triangle" fill="#000" points="107.809 27.901 109.309 64.901 106.309 64.901" transform="translate(107.808753, 46.400992) rotate(-80.000000) translate(-107.808753, -46.400992)"/><polygon id="Triangle" fill="#000" points="20.479 13.19 21.979 50.19 18.979 50.19" transform="translate(20.479416, 31.689703) rotate(100.000000) translate(-20.479416, -31.689703)"/><polygon id="Triangle" fill="#000" points="102.021 33.813 103.521 70.813 100.521 70.813" transform="translate(102.021095, 52.313351) rotate(-71.000000) translate(-102.021095, -52.313351)"/><polygon id="Triangle" fill="#000" points="24.98 7.941 26.48 44.941 23.48 44.941" transform="translate(24.980446, 26.441289) rotate(109.000000) translate(-24.980446, -26.441289)"/><ellipse id="Inner-Oval" cx="63.5" cy="37.5" stroke="#000" rx="51.5" ry="31.5"/><ellipse id="Inner-Oval" cx="63.5" cy="36" stroke="#000" rx="40.873" ry="25"/></g><path id="Gnomon" fill="#000" fill-opacity=".495" d="M69.0033451,64.7933842 L72.0033451,64.7933842 L75.0277592,114.413135 C73.0903677,115.333301 71.5698599,115.793384 70.4662357,115.793384 C69.3626116,115.793384 67.8421038,115.333301 65.9047123,114.413135 L69.0033451,64.7933842 Z" transform="translate(70.466236, 90.293384) rotate(-51.000000) translate(-70.466236, -90.293384)"/><g id="Gnomon" stroke-width="1" transform="translate(83.000000, 47.000000)"><ellipse id="Oval" cx="6.5" cy="59.5" fill="#000" rx="6.5" ry="3.5"/><path fill="#B792FF" stroke="#000" stroke-width="2" d="M5.94995031,1 L2.93188376,59.7536415 C4.4718839,60.5912375 5.66361222,61 6.46289062,61 C7.26229731,61 8.45427988,60.5911063 9.99463899,59.7532382 L7.04888168,1 L5.94995031,1 Z"/></g></g></g></svg>